<?xml version="1.0" encoding="utf-8"?>
<!-- Generator: Adobe Illustrator 16.0.0, SVG Export Plug-In . SVG Version: 6.00 Build 0)  -->
<!DOCTYPE svg PUBLIC "-//W3C//DTD SVG 1.1//EN" "http://www.w3.org/Graphics/SVG/1.1/DTD/svg11.dtd">
<svg version="1.1" id="Layer_1" xmlns="http://www.w3.org/2000/svg" xmlns:xlink="http://www.w3.org/1999/xlink" x="0px" y="0px"
	 width="1977px" height="354px" viewBox="0 0 1977 354" enable-background="new 0 0 1977 354" xml:space="preserve">
<path fill="#FFFFFF" d="M1196.336,334.485c-23.623,0-44.865-3.697-63.15-10.992c-18.268-7.273-35.482-18.91-51.164-34.596
	l-0.807-0.805l7.787-6.748l0.699,0.723c14.623,15.178,30.766,26.312,47.973,33.086c17.207,6.771,37.082,10.209,59.068,10.209
	c28.764,0,51.752-5.412,68.346-16.086c16.477-10.566,24.826-26.812,24.826-48.275c0-10.744-1.9-19.922-5.645-27.293
	c-3.744-7.346-9.576-13.787-17.355-19.158c-7.834-5.404-17.984-10.062-30.156-13.852c-12.277-3.814-26.908-7.405-43.52-10.669
	c-16.137-3.004-30.627-6.266-43.07-9.685c-12.51-3.445-23.266-7.919-31.957-13.291c-8.764-5.428-15.471-12.341-19.922-20.557
	c-4.447-8.186-6.703-18.527-6.703-30.745c0-12.742,2.455-24.183,7.301-34.009c4.848-9.836,11.879-18.272,20.885-25.071
	c8.984-6.767,19.904-11.943,32.465-15.397c12.533-3.441,26.811-5.188,42.459-5.188c18.678,0,35.217,2.725,49.137,8.099
	c13.934,5.381,26.875,14.542,38.463,27.226l0.652,0.726l-6.787,7.319l-0.77-0.849c-11.391-12.444-23.369-21.07-35.602-25.641
	c-12.32-4.605-27.219-6.937-44.277-6.937c-16.582,0-30.949,1.653-42.711,4.911c-11.764,3.241-21.531,7.947-29.043,13.989
	c-7.486,6.019-13.057,13.283-16.561,21.604c-3.496,8.338-5.264,17.895-5.264,28.395c0,10.201,1.76,18.825,5.23,25.639
	c3.488,6.817,8.906,12.634,16.094,17.291c7.303,4.722,16.826,8.83,28.314,12.209c11.578,3.404,25.605,6.79,41.684,10.06
	c16.154,3.288,30.994,6.897,44.119,10.717c13.248,3.875,24.619,8.764,33.791,14.535c9.305,5.824,16.559,13.146,21.564,21.754
	c5.004,8.641,7.541,19.619,7.541,32.631c0,24.111-9.359,42.82-27.82,55.605C1254.1,328.05,1228.494,334.485,1196.336,334.485"/>
<path fill="#FFFFFF" d="M1634.209,332.425h-13.414l-0.312-0.398l-125.172-157.891l-65.916,66.727v91.562h-10.35V38.144h10.35v188.16
	l184.486-188.16h14.895l-1.762,1.808l-124.018,126.895L1634.209,332.425z"/>
<path fill="#FFFFFF" d="M1840.172,334.481c-20.387,0-39.172-4.33-55.822-12.873c-16.668-8.539-31.242-19.836-43.312-33.582
	c-12.119-13.756-21.607-29.791-28.197-47.652c-6.588-17.85-9.932-36.383-9.932-55.091c0-19.524,3.559-38.49,10.574-56.352
	c7.006-17.854,16.758-33.883,28.99-47.637c12.252-13.762,26.902-24.852,43.537-32.956c16.684-8.131,34.904-12.251,54.162-12.251
	c20.088,0,38.803,4.402,55.629,13.086c16.766,8.661,31.342,20.17,43.312,34.199c11.953,14.011,21.359,30.113,27.955,47.842
	c6.598,17.746,9.945,35.935,9.945,54.069c0,19.813-3.551,38.913-10.557,56.767c-7.016,17.854-16.777,33.816-29.004,47.438
	c-12.258,13.629-26.828,24.643-43.324,32.744C1877.58,330.358,1859.428,334.481,1840.172,334.481 M1840.172,46.441
	c-18.662,0-36.01,4.045-51.572,12.024c-15.58,7.994-29.107,18.634-40.197,31.628c-11.113,13.017-19.84,27.998-25.949,44.533
	c-6.1,16.561-9.193,33.608-9.193,50.657c0,17.878,3.229,35.409,9.609,52.085c6.35,16.668,15.223,31.648,26.352,44.541
	c11.066,12.85,24.521,23.209,39.979,30.805c15.402,7.566,32.553,11.412,50.973,11.412c18.666,0,36.014-4.041,51.562-12.02
	c15.564-7.984,29.018-18.625,40-31.635c10.988-13.021,19.646-28.004,25.73-44.531c6.1-16.537,9.197-33.574,9.197-50.657
	c0-17.896-3.229-35.417-9.604-52.076c-6.367-16.695-15.371-31.669-26.762-44.524c-11.371-12.867-24.893-23.237-40.199-30.825
	C1874.809,50.284,1858.01,46.441,1840.172,46.441"/>
<path fill="#FFFFFF" d="M663.304,332.425H649.89l-0.314-0.398L524.404,174.136l-65.915,66.727v91.562h-10.351V38.144h10.351v188.16
	l184.485-188.16h14.894l-1.759,1.808L532.087,166.846L663.304,332.425z"/>
<g>
	<path fill="#FFFFFF" d="M872.276,38.782l-0.272-0.637h-8.801L735.376,330.94l-0.655,1.488h11.371l45.678-104.523h151.268
		l45.395,103.883l0.272,0.641h11.375L872.276,38.782z M795.996,217.554l71.609-163.743l70.82,163.743H795.996z"/>
</g>
<g>
	<polygon fill="#EABC26" points="100.718,168.253 -0.014,264.032 -0.014,353.981 258.26,353.981 258.26,353.96 100.718,168.208 	"/>
	<polygon fill="#D6A429" points="-0.014,-0.045 -0.014,225.091 236.769,-0.045 	"/>
	<polygon fill="#E2AB25" points="277.721,-0.045 121.513,148.479 121.441,148.479 295.716,353.96 354.013,353.96 354.013,-0.045 	
		"/>
</g>
<line fill="none" x1="1977.014" y1="40.323" x2="1977.014" y2="285.656"/>
</svg>
